<svg width="32" height="32" viewBox="0 0 32 32" fill="none" xmlns="http://www.w3.org/2000/svg">
<path d="M29.9627 0.0184143C30.1968 -0.0146943 30.4355 -0.00307182 30.6648 0.052598C30.8941 0.108268 31.1094 0.206861 31.2979 0.34258C31.4864 0.478299 31.6445 0.648404 31.7627 0.842892C31.8809 1.03738 31.9569 1.25232 31.9863 1.47508C32.0156 1.69784 31.9977 1.92392 31.9336 2.14002C31.8695 2.35613 31.7605 2.55789 31.613 2.73345C31.4655 2.90901 31.2824 3.05483 31.0746 3.16232C30.8668 3.26981 30.6385 3.33681 30.403 3.35937L17.7544 4.85977V8.42469H25.2114C25.6659 8.42456 26.1031 8.5897 26.433 8.8861L26.5874 9.0427C31.5411 14.7968 31.4115 25.8199 26.1862 31.4308C26.0197 31.6096 25.815 31.7528 25.5858 31.8509C25.3565 31.9491 25.1079 31.9999 24.8563 32H6.91322C6.65545 32.0001 6.40075 31.947 6.16681 31.8444C5.93286 31.7417 5.72529 31.592 5.55852 31.4056C0.48061 25.7256 0.48061 14.7008 5.55852 9.01913C5.72529 8.83272 5.93286 8.68298 6.16681 8.58033C6.40075 8.47768 6.65545 8.42457 6.91322 8.42469H14.2034V5.28076L1.99511 6.72896C1.5633 6.78006 1.12674 6.67897 0.768338 6.44491C0.409933 6.21084 0.154641 5.86009 0.0509412 5.45926L0.0136557 5.2656C-0.0445989 4.82259 0.0850178 4.37576 0.37401 4.02336C0.663003 3.67095 1.08772 3.44181 1.55478 3.38632L15.7516 1.70236L15.7711 1.70068L15.7854 1.699L29.9627 0.0184143ZM14.2034 11.7926H7.78143L7.69088 11.9138C6.41608 13.6685 5.65084 15.9722 5.39695 18.3869L5.38274 18.5284H14.2034V11.7926ZM24.3201 11.7926H17.7544V18.5284H26.5945L26.5857 18.4072C26.3673 15.989 25.6393 13.6736 24.3983 11.9004L24.3201 11.7926Z" fill="#8F5EF4"/>
</svg>
